Coordinates
version=1
nRows=10
nColumns=40
inDegrees=yes

Units are S.I. units (second, meters, Newtons, ...)
Angles are in degrees.

endheader
time	pelvis_tilt	pelvis_list	pelvis_rotation	pelvis_tx	pelvis_ty	pelvis_tz	hip_flexion_r	hip_adduction_r	hip_rotation_r	knee_angle_r	knee_angle_r_beta	ankle_angle_r	subtalar_angle_r	mtp_angle_r	hip_flexion_l	hip_adduction_l	hip_rotation_l	knee_angle_l	knee_angle_l_beta	ankle_angle_l	subtalar_angle_l	mtp_angle_l	lumbar_extension	lumbar_bending	lumbar_rotation	arm_flex_r	arm_add_r	arm_rot_r	elbow_flex_r	pro_sup_r	wrist_flex_r	wrist_dev_r	arm_flex_l	arm_add_l	arm_rot_l	elbow_flex_l	pro_sup_l	wrist_flex_l	wrist_dev_l
     14.26300000	     -4.65537456	     -4.11532875	     -5.64076946	      1.01208671	      0.92813609	      0.45908120	     24.71499184	      0.20072567	    -12.45010296	     13.95895472	     13.95895472	      3.63091493	      5.64086423	      5.78493434	      5.42749675	     -4.36361771	    -14.29004598	     16.67055352	     16.67055352	     16.21771550	    -10.04346457	     -3.88872775	    -10.69565005	      3.84428367	     -0.02979863	     -5.48537137	    -13.35527351	    -15.30491259	     27.01892018	     47.21428127	      0.00000000	      0.00000000	     21.80631089	    -15.08735299	     -5.79560144	     52.93358215	     46.83310964	      0.00000000	      0.00000000
     14.27600000	     -4.49564352	     -4.01508344	     -5.59250637	      1.01407370	      0.92751996	      0.46080356	     24.31010948	      0.29203730	    -11.52920425	     15.24954439	     15.24954439	      3.29547368	      3.98322169	      3.21273964	      4.70847549	     -4.33280784	    -14.41372704	     16.64789687	     16.64789687	     16.87027587	     -9.53714743	     -3.27956557	    -10.57095148	      3.77087958	     -0.31793895	     -5.04603353	    -13.32502133	    -14.67523289	     27.96802427	     47.08681161	      0.00000000	      0.00000000	     21.59550833	    -15.10735964	     -5.89023542	     50.93198424	     46.81837770	      0.00000000	      0.00000000
     14.28900000	     -4.31873281	     -3.97458890	     -5.51059445	      1.01625386	      0.92697807	      0.46249389	     23.79229812	      0.33689767	    -11.11352144	     16.49778851	     16.49778851	      3.64620239	      3.41500162	      2.56245066	      3.94963177	     -4.33862118	    -14.39978721	     16.56588211	     16.56588211	     17.24237677	     -9.37467467	     -3.23140305	    -10.45677433	      3.74316021	     -0.38902006	     -4.57905848	    -13.20754447	    -14.54865037	     28.35637523	     47.05713048	      0.00000000	      0.00000000	     20.95322279	    -14.90071909	     -5.82570305	     50.29474031	     46.79894049	      0.00000000	      0.00000000
     14.30200000	     -4.19596878	     -3.89524253	     -5.38991855	      1.01856181	      0.92638409	      0.46429407	     23.32529931	      0.42383258	    -10.23491034	     17.62140308	     17.62140308	      3.82169191	      2.20769786	      1.61147214	      3.29666105	     -4.34686392	    -14.39195601	     16.59334698	     16.59334698	     17.72185395	     -9.02052226	     -2.92096299	    -10.22578715	      3.74118649	     -0.66377814	     -4.05951745	    -13.05748227	    -14.19418345	     29.10222875	     46.98732212	      0.00000000	      0.00000000	     20.25908462	    -14.76726729	     -5.86079750	     48.90271745	     46.77924520	      0.00000000	      0.00000000
     14.31500000	     -3.97531079	     -3.84900799	     -5.20675391	      1.02095521	      0.92599998	      0.46611912	     22.75172689	      0.51204794	     -9.53661284	     18.61843027	     18.61843027	      4.12151846	      1.16257405	      0.92947117	      2.60883967	     -4.41464453	    -14.35535214	     16.75581276	     16.75581276	     18.14519198	     -8.72153382	     -2.64545720	    -10.13925217	      3.73007238	     -0.81202157	     -3.52300798	    -12.95771831	    -13.87476684	     29.82540516	     46.92597181	      0.00000000	      0.00000000	     19.59016144	    -14.60489681	     -5.89971409	     47.63355686	     46.76160473	      0.00000000	      0.00000000
     14.32800000	     -3.77958198	     -3.96207731	     -5.01024789	      1.02341398	      0.92575940	      0.46817988	     22.04265869	      0.87010423	     -8.63898168	     19.13563453	     19.13563453	      4.07621477	     -0.33585606	     -0.27733056	      2.11923157	     -4.77838936	    -14.48525340	     17.34800903	     17.34800903	     19.14150922	     -7.98334467	     -1.43535653	     -9.99795559	      3.91104866	     -0.60838439	     -3.57993297	    -13.13024325	    -12.48553737	     31.49932928	     46.71636651	      0.00000000	      0.00000000	     19.55677156	    -13.98615020	     -6.28605923	     44.94740432	     46.76370640	      0.00000000	      0.00000000
     14.34100000	     -3.60532525	     -3.93690998	     -4.79654493	      1.02587763	      0.92572441	      0.47004668	     21.42637123	      0.91721945	     -8.39567312	     19.63851056	     19.63851056	      4.54500589	     -0.55513072	     -0.51120533	      1.56324462	     -4.89466470	    -14.27458653	     17.62731653	     17.62731653	     19.27036936	     -7.97816841	     -1.46438937	     -9.86315182	      3.94600661	     -0.41671051	     -3.11822633	    -13.06328281	    -12.43163520	     31.79463522	     46.70228751	      0.00000000	      0.00000000	     18.63324625	    -13.53141661	     -6.18450848	     44.46408500	     46.73809137	      0.00000000	      0.00000000
     14.35400000	     -3.39506868	     -3.93779785	     -4.55805848	      1.02818625	      0.92579058	      0.47219445	     20.99060534	      1.10572612	     -7.64546679	     20.36795654	     20.36795654	      4.96700355	     -2.02322553	     -0.67764286	      1.17734848	     -5.15741623	    -14.24670926	     18.31025258	     18.31025258	     19.64038412	     -7.76423008	     -1.25036653	     -9.73822097	      3.98072842	     -1.19776356	     -2.17502900	    -12.98909017	    -12.04034149	     33.20946910	     46.61307228	      0.00000000	      0.00000000	     17.64569137	    -13.78983004	     -6.24369542	     42.54242624	     46.71340264	      0.00000000	      0.00000000
     14.36700000	     -3.22906794	     -4.03000772	     -4.26624467	      1.03037432	      0.92619105	      0.47438092	     20.39837569	      1.35965964	     -7.24467328	     20.60933453	     20.60933453	      5.35348292	     -2.89889867	     -0.74972380	      1.03275833	     -5.59829216	    -14.14161701	     19.32001334	     19.32001334	     19.78977069	     -7.59975855	     -1.05379034	     -9.69051822	      4.13700638	     -1.31411706	     -1.65111146	    -13.01570724	    -11.51233334	     34.42697267	     46.52198075	      0.00000000	      0.00000000	     16.88007343	    -13.49787030	     -6.27880469	     40.88183235	     46.69169190	      0.00000000	      0.00000000
     14.38000000	     -2.98871583	     -3.93476182	     -4.09126610	      1.03268065	      0.92698312	      0.47658598	     19.73164860	      1.34981183	     -7.11089435	     20.78867224	     20.78867224	      5.81090059	     -3.09164800	     -0.88721710	      0.67483477	     -5.74925767	    -13.99507921	     20.04190570	     20.04190570	     19.66381403	     -7.69468614	     -1.07851178	     -9.68193697	      4.05917192	     -0.91430395	     -1.11751143	    -13.05204783	    -11.42826777	     34.82177893	     46.50315343	      0.00000000	      0.00000000	     15.88181712	    -12.95403379	     -6.19063128	     40.27530175	     46.66459622	      0.00000000	      0.00000000
